<mxfile host="Electron" modified="2024-02-11T13:46:20.829Z" agent="Mozilla/5.0 (Windows NT 10.0; Win64; x64) AppleWebKit/537.36 (KHTML, like Gecko) draw.io/23.0.2 Chrome/120.0.6099.109 Electron/28.1.0 Safari/537.36" etag="0Z066dpp--e4ahrlzsWT" version="23.0.2" type="device">
  <diagram name="Page-1" id="iph5bSLJziaSwbv6oD16">
    <mxGraphModel dx="941" dy="652" grid="1" gridSize="10" guides="1" tooltips="1" connect="1" arrows="1" fold="1" page="1" pageScale="1" pageWidth="850" pageHeight="1100" math="0" shadow="0">
      <root>
        <mxCell id="0" />
        <mxCell id="1" parent="0" />
        <mxCell id="EwgFRQu47a3L0lYIetBx-1" value="Языки программироания" style="rounded=1;whiteSpace=wrap;html=1;" parent="1" vertex="1">
          <mxGeometry x="390" y="280" width="120" height="60" as="geometry" />
        </mxCell>
        <mxCell id="EwgFRQu47a3L0lYIetBx-5" style="rounded=0;orthogonalLoop=1;jettySize=auto;html=1;entryX=0.25;entryY=0;entryDx=0;entryDy=0;endArrow=none;endFill=0;" parent="1" source="EwgFRQu47a3L0lYIetBx-2" target="EwgFRQu47a3L0lYIetBx-1" edge="1">
          <mxGeometry relative="1" as="geometry" />
        </mxCell>
        <mxCell id="EwgFRQu47a3L0lYIetBx-2" value="Компилируемые" style="ellipse;whiteSpace=wrap;html=1;" parent="1" vertex="1">
          <mxGeometry x="260" y="200" width="120" height="80" as="geometry" />
        </mxCell>
        <mxCell id="EwgFRQu47a3L0lYIetBx-6" style="rounded=0;orthogonalLoop=1;jettySize=auto;html=1;entryX=0.75;entryY=0;entryDx=0;entryDy=0;endArrow=none;endFill=0;" parent="1" source="EwgFRQu47a3L0lYIetBx-3" target="EwgFRQu47a3L0lYIetBx-1" edge="1">
          <mxGeometry relative="1" as="geometry" />
        </mxCell>
        <mxCell id="EwgFRQu47a3L0lYIetBx-21" style="rounded=0;orthogonalLoop=1;jettySize=auto;html=1;entryX=0;entryY=0.5;entryDx=0;entryDy=0;endArrow=none;endFill=0;" parent="1" source="EwgFRQu47a3L0lYIetBx-3" target="EwgFRQu47a3L0lYIetBx-20" edge="1">
          <mxGeometry relative="1" as="geometry" />
        </mxCell>
        <mxCell id="EwgFRQu47a3L0lYIetBx-3" value="Интерпретируемые" style="ellipse;whiteSpace=wrap;html=1;" parent="1" vertex="1">
          <mxGeometry x="510" y="200" width="120" height="80" as="geometry" />
        </mxCell>
        <mxCell id="EwgFRQu47a3L0lYIetBx-7" style="edgeStyle=orthogonalEdgeStyle;rounded=0;orthogonalLoop=1;jettySize=auto;html=1;entryX=0.5;entryY=1;entryDx=0;entryDy=0;endArrow=none;endFill=0;" parent="1" source="EwgFRQu47a3L0lYIetBx-4" target="EwgFRQu47a3L0lYIetBx-1" edge="1">
          <mxGeometry relative="1" as="geometry" />
        </mxCell>
        <mxCell id="EwgFRQu47a3L0lYIetBx-24" style="rounded=0;orthogonalLoop=1;jettySize=auto;html=1;entryX=0.5;entryY=0;entryDx=0;entryDy=0;endArrow=none;endFill=0;" parent="1" source="EwgFRQu47a3L0lYIetBx-4" target="EwgFRQu47a3L0lYIetBx-22" edge="1">
          <mxGeometry relative="1" as="geometry" />
        </mxCell>
        <mxCell id="EwgFRQu47a3L0lYIetBx-25" style="rounded=0;orthogonalLoop=1;jettySize=auto;html=1;entryX=0.5;entryY=0;entryDx=0;entryDy=0;endArrow=none;endFill=0;" parent="1" source="EwgFRQu47a3L0lYIetBx-4" target="EwgFRQu47a3L0lYIetBx-23" edge="1">
          <mxGeometry relative="1" as="geometry" />
        </mxCell>
        <mxCell id="rL1JxRhZARz3dElsxKIx-2" style="edgeStyle=orthogonalEdgeStyle;rounded=0;orthogonalLoop=1;jettySize=auto;html=1;entryX=0.5;entryY=0;entryDx=0;entryDy=0;endArrow=none;endFill=0;" edge="1" parent="1" source="EwgFRQu47a3L0lYIetBx-4" target="rL1JxRhZARz3dElsxKIx-1">
          <mxGeometry relative="1" as="geometry" />
        </mxCell>
        <mxCell id="EwgFRQu47a3L0lYIetBx-4" value="Байт-код" style="ellipse;whiteSpace=wrap;html=1;" parent="1" vertex="1">
          <mxGeometry x="390" y="370" width="120" height="80" as="geometry" />
        </mxCell>
        <mxCell id="EwgFRQu47a3L0lYIetBx-9" style="rounded=0;orthogonalLoop=1;jettySize=auto;html=1;entryX=0.5;entryY=0;entryDx=0;entryDy=0;endArrow=none;endFill=0;" parent="1" source="EwgFRQu47a3L0lYIetBx-8" target="EwgFRQu47a3L0lYIetBx-2" edge="1">
          <mxGeometry relative="1" as="geometry" />
        </mxCell>
        <mxCell id="EwgFRQu47a3L0lYIetBx-8" value="Высокое быстродействие" style="ellipse;whiteSpace=wrap;html=1;" parent="1" vertex="1">
          <mxGeometry x="295" y="120" width="130" height="60" as="geometry" />
        </mxCell>
        <mxCell id="EwgFRQu47a3L0lYIetBx-11" style="rounded=0;orthogonalLoop=1;jettySize=auto;html=1;endArrow=none;endFill=0;" parent="1" source="EwgFRQu47a3L0lYIetBx-10" target="EwgFRQu47a3L0lYIetBx-2" edge="1">
          <mxGeometry relative="1" as="geometry" />
        </mxCell>
        <mxCell id="EwgFRQu47a3L0lYIetBx-10" value="Высокая &lt;br&gt;трудоемкость разработки" style="ellipse;whiteSpace=wrap;html=1;" parent="1" vertex="1">
          <mxGeometry x="150" y="150" width="130" height="60" as="geometry" />
        </mxCell>
        <mxCell id="EwgFRQu47a3L0lYIetBx-13" style="rounded=0;orthogonalLoop=1;jettySize=auto;html=1;entryX=0;entryY=1;entryDx=0;entryDy=0;endArrow=none;endFill=0;" parent="1" source="EwgFRQu47a3L0lYIetBx-12" target="EwgFRQu47a3L0lYIetBx-2" edge="1">
          <mxGeometry relative="1" as="geometry" />
        </mxCell>
        <mxCell id="EwgFRQu47a3L0lYIetBx-12" value="Зависимость от платформы" style="ellipse;whiteSpace=wrap;html=1;" parent="1" vertex="1">
          <mxGeometry x="120" y="250" width="130" height="60" as="geometry" />
        </mxCell>
        <mxCell id="EwgFRQu47a3L0lYIetBx-16" style="rounded=0;orthogonalLoop=1;jettySize=auto;html=1;endArrow=none;endFill=0;" parent="1" source="EwgFRQu47a3L0lYIetBx-15" target="EwgFRQu47a3L0lYIetBx-3" edge="1">
          <mxGeometry relative="1" as="geometry" />
        </mxCell>
        <mxCell id="EwgFRQu47a3L0lYIetBx-15" value="Низкое быстродействие" style="ellipse;whiteSpace=wrap;html=1;" parent="1" vertex="1">
          <mxGeometry x="470" y="120" width="130" height="60" as="geometry" />
        </mxCell>
        <mxCell id="EwgFRQu47a3L0lYIetBx-18" style="rounded=0;orthogonalLoop=1;jettySize=auto;html=1;entryX=1;entryY=0;entryDx=0;entryDy=0;endArrow=none;endFill=0;" parent="1" source="EwgFRQu47a3L0lYIetBx-17" target="EwgFRQu47a3L0lYIetBx-3" edge="1">
          <mxGeometry relative="1" as="geometry" />
        </mxCell>
        <mxCell id="EwgFRQu47a3L0lYIetBx-17" value="Кроссплатформенность" style="ellipse;whiteSpace=wrap;html=1;" parent="1" vertex="1">
          <mxGeometry x="630" y="140" width="150" height="60" as="geometry" />
        </mxCell>
        <mxCell id="EwgFRQu47a3L0lYIetBx-20" value="Низкая&lt;br&gt;трудоемкость разработки" style="ellipse;whiteSpace=wrap;html=1;" parent="1" vertex="1">
          <mxGeometry x="650" y="240" width="130" height="60" as="geometry" />
        </mxCell>
        <mxCell id="EwgFRQu47a3L0lYIetBx-22" value="Среднее быстродействие" style="ellipse;whiteSpace=wrap;html=1;" parent="1" vertex="1">
          <mxGeometry x="250" y="440" width="130" height="60" as="geometry" />
        </mxCell>
        <mxCell id="EwgFRQu47a3L0lYIetBx-23" value="Средняя&lt;br&gt;трудоемкость разработки" style="ellipse;whiteSpace=wrap;html=1;" parent="1" vertex="1">
          <mxGeometry x="530" y="440" width="130" height="60" as="geometry" />
        </mxCell>
        <mxCell id="rL1JxRhZARz3dElsxKIx-1" value="Кроссплатформенность" style="ellipse;whiteSpace=wrap;html=1;" vertex="1" parent="1">
          <mxGeometry x="375" y="470" width="150" height="60" as="geometry" />
        </mxCell>
      </root>
    </mxGraphModel>
  </diagram>
</mxfile>
